<?xml version="1.0" encoding="UTF-8"?>
<svg xmlns="http://www.w3.org/2000/svg" xmlns:xlink="http://www.w3.org/1999/xlink" id="Layer_1" x="0px" y="0px" viewBox="0 0 1507.2 342.3" style="enable-background:new 0 0 1507.2 342.3;" xml:space="preserve">
  <style type="text/css">	.st0{fill:url(#SVGID_1_);}	.st1{fill:url(#SVGID_00000165217253588091574080000000623227125485073855_);}	.st2{fill:url(#SVGID_00000118385410948476827670000012262266313832474289_);}	.st3{fill:#10325E;}	.st4{fill:url(#SVGID_00000031193873402639698310000003409977314589745577_);}	.st5{fill:url(#SVGID_00000067214344251488630950000013150022315403849913_);}	.st6{fill:url(#SVGID_00000081636406191113982810000015435129402528787093_);}	.st7{fill:url(#SVGID_00000064351087292651229380000010801598665250458548_);}	.st8{fill:url(#SVGID_00000084492790009502392640000003624914272534578863_);}	.st9{fill:url(#SVGID_00000041290499937602535530000017041084636649682050_);}	.st10{fill:#FFFFFF;}</style>
  <g>	<g>		<linearGradient id="SVGID_1_" gradientUnits="userSpaceOnUse" x1="174.0542" y1="322.0641" x2="174.0542" y2="105.9186">			<stop offset="0" style="stop-color:#81603D"></stop>			<stop offset="6.950621e-02" style="stop-color:#916D45"></stop>			<stop offset="0.2504" style="stop-color:#B58A57"></stop>			<stop offset="0.3977" style="stop-color:#CB9C62"></stop>			<stop offset="0.492" style="stop-color:#D3A366"></stop>			<stop offset="0.5896" style="stop-color:#CD9E63"></stop>			<stop offset="0.7177" style="stop-color:#BD915B"></stop>			<stop offset="0.862" style="stop-color:#A27B4D"></stop>			<stop offset="1" style="stop-color:#81603D"></stop>		</linearGradient>		<path class="st0" d="M316.5,322.1h-92.8c-4.4,0-8.1-3.6-8.1-8.1v-56.6c0-22.5-17.5-41.7-40-42.6c-23.6-0.9-43.2,18.1-43.2,41.5   V314c0,4.4-3.6,8.1-8.1,8.1H31.6c-4.4,0-8.1-3.6-8.1-8.1v-55.7c0-82.9,66.2-151.6,149-152.4c83.7-0.8,152,67,152,150.5V314   C324.6,318.5,321,322.1,316.5,322.1z"></path>					<linearGradient id="SVGID_00000044161849806423814810000012190902936298370206_" gradientUnits="userSpaceOnUse" x1="78.014" y1="51.6287" x2="78.014" y2="116.8806">			<stop offset="3.021749e-04" style="stop-color:#233F63"></stop>			<stop offset="0.9998" style="stop-color:#00273B"></stop>		</linearGradient>		<path style="fill:url(#SVGID_00000044161849806423814810000012190902936298370206_);" d="M132.5,95V28.3c0-4.4-3.6-8.1-8.1-8.1   H31.6c-4.4,0-8.1,3.6-8.1,8.1v228.1c0-14,2-27.6,5.6-40.4c9.8-52.6,47.5-95.3,97.2-112.3C130,102.5,132.5,99,132.5,95z"></path>					<linearGradient id="SVGID_00000092441637302589398880000002553630256031984792_" gradientUnits="userSpaceOnUse" x1="270.0945" y1="51.6287" x2="270.0945" y2="116.8806">			<stop offset="3.021749e-04" style="stop-color:#233F63"></stop>			<stop offset="0.9998" style="stop-color:#00273B"></stop>		</linearGradient>		<path style="fill:url(#SVGID_00000092441637302589398880000002553630256031984792_);" d="M215.6,28.3V95c0,3.9,2.5,7.4,6.2,8.7   c49.6,17,87.3,59.7,97.2,112.3c3.6,12.9,5.6,26.4,5.6,40.4V28.3c0-4.4-3.6-8.1-8.1-8.1h-92.8C219.2,20.3,215.6,23.9,215.6,28.3z"></path>	</g>	<g>		<g>			<g>				<path class="st3" d="M503.9,40.6v167.1H467v-69h-57.5v69h-36.9V40.6h36.9v66.1H467V40.6H503.9z"></path>				<path class="st3" d="M662.6,175.9v31.7h-117V40.6h114.5v31.7h-77.6v34.6h65.4v31.4h-65.4v37.6H662.6z"></path>				<path class="st3" d="M751.5,146h-19.9v61.7h-36.9V40.6h68.3c41,0,57.2,15.5,57.2,52.8c0,27.3-8.8,43-29.7,49.1l36.1,65.1h-42     L751.5,146z M731.6,114.5h27.5c17.9,0,24.3-6.1,24.3-21.1c0-15.2-6.4-21.4-24.3-21.4h-27.5V114.5z"></path>				<path class="st3" d="M855.2,40.6h36.9v167.1h-36.9V40.6z"></path>				<path class="st3" d="M1043.2,72.8h-44.7v134.9h-36.9V72.8h-44.7V40.6h126.3V72.8z"></path>				<path class="st3" d="M1136,174h-52.6l-10.6,33.7h-37.3l56-167.1h38.1l56,167.1h-39.1L1136,174z M1092.5,143.3h34.4l-17.2-60.9     L1092.5,143.3z"></path>				<path class="st3" d="M1331.4,144.7c0,44.7-20.9,65.8-64.9,65.8c-45,0-66.6-21.9-66.6-66.6v-39.8c0-44.7,21.9-66.6,65.4-66.6     c40.3,0,63.1,18.7,64.6,54.8h-35.1c-1.2-15.5-9.8-23.1-28.5-23.1c-21.4,0-29.5,10.3-29.5,36.9V142c0,26.3,8.6,36.9,30.5,36.9     c20.6,0,29-9.6,29-34.2h-27.5V113h62.7V144.7z"></path>				<path class="st3" d="M1483.7,175.9v31.7h-117V40.6h114.5v31.7h-77.6v34.6h65.4v31.4h-65.4v37.6H1483.7z"></path>			</g>		</g>		<g>			<path class="st3" d="M427.2,242.4v69.4h-15.3v-28.7H388v28.7h-15.3v-69.4H388v27.5h23.9v-27.5H427.2z"></path>			<path class="st3" d="M511.5,298.6v13.2h-48.6v-69.4h47.6v13.2h-32.3v14.4h27.2V283h-27.2v15.6H511.5z"></path>			<path class="st3" d="M577.5,297.8h-21.8l-4.4,14h-15.5l23.3-69.4h15.8l23.3,69.4h-16.2L577.5,297.8z M559.5,285h14.3l-7.1-25.3    L559.5,285z"></path>			<path class="st3" d="M671,298.4v13.4h-44.6v-69.4h15.3v56H671z"></path>			<path class="st3" d="M737.3,255.7h-18.6v56h-15.3v-56h-18.6v-13.4h52.5V255.7z"></path>			<path class="st3" d="M820.5,242.4v69.4h-15.3v-28.7h-23.9v28.7h-15.3v-69.4h15.3v27.5h23.9v-27.5H820.5z"></path>			<path class="st3" d="M955.4,242.4v69.4h-14.6L915.6,265v46.8h-14.5v-69.4h16.2l23.6,43.8v-43.8H955.4z"></path>			<path class="st3" d="M1039.7,298.6v13.2h-48.6v-69.4h47.6v13.2h-32.3v14.4h27.2V283h-27.2v15.6H1039.7z"></path>			<path class="st3" d="M1116.9,255.7h-18.6v56H1083v-56h-18.6v-13.4h52.5V255.7z"></path>			<path class="st3" d="M1227.1,242.4l-17.2,69.4h-15.8l-11.2-44.8l-11.3,44.8h-16.1l-17.2-69.4h15.8l10.3,47.1l11.8-47.1h13.6    l11.8,47.1l10.3-47.1H1227.1z"></path>			<path class="st3" d="M1252.5,284.7v-15.3c0-19.4,8.9-28.3,28.1-28.3c19.2,0,28.1,8.9,28.1,28.3v15.3c0,19.4-8.9,28.3-28.1,28.3    C1261.4,313,1252.5,304.1,1252.5,284.7z M1293.3,284.5v-14.9c0-10.9-3.6-15.3-12.8-15.3c-9.2,0-12.8,4.4-12.8,15.3v14.9    c0,10.9,3.6,15.3,12.8,15.3C1289.8,299.8,1293.3,295.4,1293.3,284.5z"></path>			<path class="st3" d="M1365.5,286.2h-8.3v25.6h-15.3v-69.4h28.4c17.1,0,23.8,6.4,23.8,22c0,11.3-3.7,17.9-12.4,20.4l15,27.1h-17.5    L1365.5,286.2z M1357.2,273.1h11.4c7.5,0,10.1-2.6,10.1-8.8c0-6.3-2.7-8.9-10.1-8.9h-11.4V273.1z"></path>			<path class="st3" d="M1450.4,283l-8.2,10.4v18.4h-15.3v-69.4h15.3v30.3l23.6-30.3h17.6l-22.4,28.5l22.7,40.9h-17.5L1450.4,283z"></path>		</g>	</g></g>
</svg>
